<?xml version="1.0" standalone="no"?>
<!DOCTYPE svg PUBLIC "-//W3C//DTD SVG 20010904//EN"
 "http://www.w3.org/TR/2001/REC-SVG-20010904/DTD/svg10.dtd">
<svg version="1.0" xmlns="http://www.w3.org/2000/svg"
 width="500.000000pt" height="500.000000pt" viewBox="0 0 500.000000 500.000000"
 preserveAspectRatio="xMidYMid meet">
<metadata>
Created by potrace 1.14, written by Peter Selinger 2001-2017
</metadata>
<g transform="translate(0.000000,500.000000) scale(0.100000,-0.100000)"
fill="#000000" stroke="none">
<path d="M753 3452 c-18 -2 -33 -6 -34 -10 0 -4 -1 -463 -2 -1020 -1 -669 1
-1012 8 -1012 6 0 37 26 71 58 34 31 100 93 149 137 48 44 102 95 120 112 l34
33 0 850 1 850 -48 1 c-184 3 -271 4 -299 1z"/>
<path d="M2228 3443 c-2 -31 -4 -65 -12 -193 -3 -69 -9 -159 -12 -200 -3 -41
-7 -104 -9 -140 -5 -99 -18 -323 -31 -520 -3 -52 -7 -124 -9 -160 -2 -36 -6
-108 -9 -160 -9 -141 -17 -276 -21 -355 -2 -38 -6 -113 -9 -165 -4 -52 -8
-132 -11 -177 l-5 -83 180 0 c137 0 180 3 181 13 0 6 2 55 4 107 3 52 7 147
10 210 6 130 13 342 20 600 4 159 12 345 20 475 1 28 6 163 10 300 4 138 9
288 10 335 5 141 18 130 -156 130 -135 0 -149 -2 -151 -17z"/>
<path d="M3889 3438 c-2 -39 5 -351 16 -683 3 -82 8 -226 10 -320 10 -373 15
-528 20 -705 4 -102 8 -238 11 -303 2 -65 6 -122 9 -127 4 -6 81 -10 182 -10
l175 0 -6 133 c-4 72 -9 161 -12 197 -3 36 -7 103 -9 150 -2 47 -6 117 -9 155
-3 39 -8 122 -12 185 -3 63 -8 144 -10 180 -3 36 -7 106 -9 155 -4 93 -10 196
-20 345 -4 47 -8 126 -10 175 -3 50 -7 122 -9 160 -3 39 -8 124 -11 190 -4 66
-8 126 -10 133 -3 9 -42 12 -150 12 -143 0 -145 0 -146 -22z"/>
<path d="M3721 3048 c-5 -13 -17 -43 -26 -68 -9 -25 -23 -58 -30 -75 -7 -16
-47 -115 -89 -220 -42 -104 -81 -199 -86 -210 -5 -11 -19 -45 -30 -75 -12 -30
-32 -78 -46 -108 -13 -29 -24 -56 -24 -61 0 -4 -18 -50 -41 -102 -22 -52 -61
-146 -85 -209 -25 -63 -49 -119 -53 -123 -5 -4 -14 7 -21 25 -7 18 -20 49 -28
68 -16 40 -21 53 -52 130 -21 54 -30 77 -50 123 -5 12 -28 69 -50 127 -23 58
-47 119 -55 135 -12 27 -183 449 -225 555 -34 88 -40 100 -42 100 -2 0 -4 -33
-4 -73 -1 -39 -4 -171 -8 -292 -16 -490 -17 -450 14 -524 15 -36 34 -82 43
-101 52 -116 76 -170 177 -400 62 -140 120 -271 128 -290 9 -19 16 -37 17 -40
0 -3 6 -15 13 -27 12 -22 18 -23 146 -23 128 0 133 1 143 23 6 12 11 25 12 29
2 7 27 64 87 196 13 29 24 55 24 58 0 3 6 20 14 37 45 99 73 163 113 257 25
58 55 128 68 155 12 28 26 61 30 75 4 14 17 45 29 70 24 52 25 112 12 570 -5
146 -8 275 -8 288 0 12 -2 22 -4 22 -3 0 -8 -10 -13 -22z"/>
<path d="M1177 1582 c-15 -2 -40 -15 -55 -30 -27 -26 -166 -153 -238 -217 -19
-17 -34 -34 -34 -38 0 -4 239 -7 530 -7 l530 0 0 139 c0 95 -4 142 -12 147
-11 7 -665 12 -721 6z"/>
</g>
</svg>
